HIERARCHY
ROOT Hips
{
	OFFSET -3.958830 18.904000 13.208200
	CHANNELS 6 Xposition Yposition Zposition Zrotation Yrotation Xrotation 
	JOINT LHipJoint
	{
		OFFSET 0.000000 0.000000 0.000000
		CHANNELS 3 Zrotation Yrotation Xrotation
		JOINT LeftUpLeg
		{
			OFFSET 1.800000 -1.400000 0.085000
			CHANNELS 3 Zrotation Yrotation Xrotation
			JOINT LeftLeg
			{
				OFFSET 2.215000 -6.000000 0.000000
				CHANNELS 3 Zrotation Yrotation Xrotation
				JOINT LeftFoot
				{
					OFFSET 2.500000 -6.900000 0.000000
					CHANNELS 3 Zrotation Yrotation Xrotation
					JOINT LeftToeBase
					{
						OFFSET 0.200000 -0.500000 1.950000
						CHANNELS 3 Zrotation Yrotation Xrotation
						End Site
						{
							OFFSET 0.000000 0.000000 0.000000
						}
					}
				}
			}
		}
	}
	JOINT RHipJoint
	{
		OFFSET 0.000000 0.000000 0.000000
		CHANNELS 3 Zrotation Yrotation Xrotation
		JOINT RightUpLeg
		{
			OFFSET -1.800000 -1.400000 0.085000
			CHANNELS 3 Zrotation Yrotation Xrotation
			JOINT RightLeg
			{
				OFFSET -2.215000 -6.000000 0.000000
				CHANNELS 3 Zrotation Yrotation Xrotation
				JOINT RightFoot
				{
					OFFSET -2.500000 -6.900000 0.000000
					CHANNELS 3 Zrotation Yrotation Xrotation
					JOINT RightToeBase
					{
						OFFSET -0.200000 -0.500000 1.950000
						CHANNELS 3 Zrotation Yrotation Xrotation
						End Site
						{
							OFFSET 0.000000 0.000000 0.000000
						}
					}
				}
			}
		}
	}
	JOINT LowerBack
	{
		OFFSET 0.000000 0.000000 0.000000
		CHANNELS 3 Zrotation Yrotation Xrotation
		JOINT Spine
		{
			OFFSET -0.087000 1.940000 -0.288900
			CHANNELS 3 Zrotation Yrotation Xrotation
			JOINT Spine1
			{
				OFFSET 0.000000 1.950000 0.060000
				CHANNELS 3 Zrotation Yrotation Xrotation
				JOINT Neck
				{
					OFFSET 0.000000 0.000000 0.000000
					CHANNELS 3 Zrotation Yrotation Xrotation
					JOINT Neck1
					{
						OFFSET 0.000000 1.600000 0.340000
						CHANNELS 3 Zrotation Yrotation Xrotation
						JOINT Head
						{
							OFFSET 0.000000 1.667000 -0.240000
							CHANNELS 3 Zrotation Yrotation Xrotation
							End Site
							{
								OFFSET 0.000000 0.000000 0.000000
							}
						}
					}
				}
				JOINT LeftShoulder
				{
					OFFSET 0.000000 0.000000 0.000000
					CHANNELS 3 Zrotation Yrotation Xrotation
					JOINT LeftArm
					{
						OFFSET 2.700000 1.550000 -0.730000
						CHANNELS 3 Zrotation Yrotation Xrotation
						JOINT LeftForeArm
						{
							OFFSET 5.450000 0.000000 0.000000
							CHANNELS 3 Zrotation Yrotation Xrotation
							JOINT LeftHand
							{
								OFFSET 3.450000 0.000000 0.000000
								CHANNELS 3 Zrotation Yrotation Xrotation
								JOINT LeftHandIndex1
								{
									OFFSET 0.750000 0.000000 0.000000
									CHANNELS 3 Zrotation Yrotation Xrotation
									End Site
									{
										OFFSET 0.000000 0.000000 0.000000
									}
								}
							}
						}
					}
				}
				JOINT RightShoulder
				{
					OFFSET 0.000000 0.000000 0.000000
					CHANNELS 3 Zrotation Yrotation Xrotation
					JOINT RightArm
					{
						OFFSET -2.700000 1.550000 -0.730000
						CHANNELS 3 Zrotation Yrotation Xrotation
						JOINT RightForeArm
						{
							OFFSET -5.450000 0.000000 0.000000
							CHANNELS 3 Zrotation Yrotation Xrotation
							JOINT RightHand
							{
								OFFSET -3.450000 0.000000 0.000000
								CHANNELS 3 Zrotation Yrotation Xrotation
								JOINT RightHandIndex1
								{
									OFFSET -0.750000 0.000000 0.000000
									CHANNELS 3 Zrotation Yrotation Xrotation
									End Site
									{
										OFFSET 0.000000 0.000000 0.000000
									}
								}
							}
						}
					}
				}
			}
		}
	}
}
MOTION
Frames: 14
Frame Time: 0.016667
0.406100 16.508180 -0.793970 -0.718373 -31.195672 3.044619 -15.112155 14.095930 1.966226 14.571132 -1.503401 -3.482541 -1.297164 7.928251 27.222169 -0.036637 6.216649 2.435672 0.192560 0.190320 0.060950 18.365629 -9.754433 3.786937 -16.188432 2.241285 -40.914473 9.033419 -6.971154 23.673339 0.041811 -3.718276 2.920003 0.283870 0.295440 0.073770 -3.694417 -3.625280 -7.110416 11.119411 -6.850040 12.205383 -2.643999 -6.083205 5.095618 -1.206772 -8.114524 -6.928627 -16.645801 12.116948 24.874449 -4.078620 9.843010 -6.671080 -19.589408 -2.336934 0.764678 -25.886541 -5.460027 -2.351594 -13.715453 -31.232109 3.045702 -3.926724 3.159332 0.079240 0.272340 -0.139800 0.119780 22.023314 5.264706 3.907680 38.083059 -3.289122 -9.140926 20.370353 32.285509 2.836629 2.129318 -1.546694 -0.209780 0.235300 0.039920 -0.093440 
0.389250 16.473420 -0.789290 -0.838782 -31.764679 2.802154 -15.111191 14.090510 1.945720 14.599992 -1.546861 -3.237549 -1.032489 8.046882 28.278986 0.005981 6.335420 2.387727 0.189500 0.186370 0.072970 18.371935 -9.698169 3.889967 -16.316034 2.448475 -41.715682 9.528907 -7.445529 25.216495 0.003678 -3.953903 2.833409 0.269650 0.271990 0.072290 -3.709403 -3.651085 -7.181526 11.161043 -7.008172 12.853084 -2.860110 -6.169838 4.915444 -1.018180 -8.120631 -7.089996 -16.777788 12.419632 25.488436 -4.530300 10.435110 -6.598090 -20.117451 -2.855932 0.930751 -25.181432 -5.005487 -2.455680 -13.178980 -30.185504 2.807373 -3.912132 3.151813 0.086600 0.260450 -0.125140 0.112040 22.195739 5.751220 3.997616 38.083339 -2.893056 -8.890642 20.348554 30.814916 2.612368 2.159543 -1.523013 -0.201450 0.219650 0.032100 -0.099650 
0.342560 16.348710 -0.776290 -1.463530 -33.238064 2.309535 -15.107628 14.020623 1.831455 14.711646 -1.589049 -2.385835 0.029939 8.230848 31.104783 0.078478 6.670276 2.251452 0.210140 0.206080 0.114670 18.413355 -9.452608 4.273533 -17.534068 3.184216 -44.259577 11.869150 -9.392607 30.279161 -0.173527 -4.933145 2.466611 0.266510 0.213230 0.070560 -3.830397 -3.725091 -7.363824 12.154147 -7.796189 15.007176 -3.428995 -6.662009 3.776837 -0.847462 -8.977425 -7.350542 -18.591063 13.841519 25.270152 -5.613830 11.822300 -8.039430 -22.243066 -3.743416 1.299564 -23.257063 -3.105420 -2.667794 -11.490654 -27.488413 2.091330 -3.868531 3.135122 0.128240 0.219550 -0.080610 0.094670 24.032351 7.023378 4.059770 36.557049 -1.818883 -8.458285 19.715599 30.196310 2.538122 2.182779 -1.492385 -0.190780 0.207060 0.019790 -0.121200 
0.273790 16.218190 -0.736670 -1.868837 -34.454582 1.582848 -15.102317 13.946037 1.720048 14.809351 -1.486666 -0.654691 1.075642 8.295188 33.005801 0.166152 6.946961 2.169442 0.219410 0.216040 0.132720 18.455417 -9.227904 4.638840 -18.678967 3.964272 -46.522798 13.634459 -11.467358 35.678360 -0.385820 -6.019378 2.100238 0.258950 0.188600 0.056150 -3.962557 -3.761269 -7.536451 13.064723 -8.642714 17.072859 -4.278495 -7.211726 2.406972 -0.682367 -9.663131 -7.628123 -20.251579 15.303374 25.562987 -5.910550 12.924140 -8.688120 -24.936771 -4.840928 1.744308 -20.835064 -1.024165 -2.648059 -9.749327 -23.934317 1.420931 -3.818437 3.111389 0.163460 0.188750 -0.050200 0.098360 26.441749 8.296464 4.203929 35.514927 -1.153889 -8.190532 18.077588 29.189917 2.185531 2.200637 -1.450626 -0.193000 0.219230 0.004950 -0.127440 
0.184060 16.088060 -0.702460 -2.547409 -35.490293 1.012416 -15.120668 13.878431 1.622069 15.538810 -1.383372 1.154017 1.752796 8.479298 34.236116 0.257284 7.171606 2.078614 0.222120 0.206250 0.176770 18.474388 -8.928799 5.025877 -20.006040 4.933954 -48.463864 16.331221 -13.997209 40.529788 -0.659997 -7.164211 1.715706 0.221380 0.101920 0.046420 -4.022752 -3.897634 -7.754208 13.807356 -9.414541 19.303107 -4.964434 -7.626031 1.112404 -0.172745 -10.089061 -8.358981 -21.634820 16.507491 26.536965 -7.320670 14.431230 -10.104350 -26.835094 -6.250992 2.476004 -19.161935 0.785006 -2.492093 -8.955176 -20.429647 1.008098 -3.731132 3.097081 0.227000 0.121960 0.009280 0.068950 27.431744 9.834456 4.647864 36.246377 -0.437707 -8.241497 16.334737 28.400898 1.876184 2.247041 -1.384824 -0.178000 0.190700 -0.007660 -0.156560 
0.094360 15.966890 -0.669340 -2.980062 -36.699223 0.497939 -15.140267 13.785939 1.556918 16.076010 -1.175840 2.811218 1.891395 8.904269 35.415119 0.339781 7.446245 1.981197 0.221370 0.191360 0.202690 18.494395 -8.686640 5.328179 -20.458039 6.255858 -50.444186 17.071115 -15.832906 45.527270 -0.908278 -8.104374 1.422484 0.193100 0.048660 0.033480 -4.101677 -3.930464 -7.910582 14.326549 -10.037347 20.826226 -5.754199 -7.958714 0.359637 0.170774 -10.419857 -9.049119 -22.991807 17.667615 27.859015 -8.037590 15.393580 -11.136050 -27.819492 -7.224579 3.328582 -18.702896 2.587619 -2.247145 -6.342063 -17.153162 0.443895 -3.672172 3.042236 0.289450 0.068800 0.052470 0.051530 27.782335 11.029355 4.746539 37.927979 1.143358 -8.019555 14.766403 26.986279 1.541210 2.292753 -1.300296 -0.179140 0.188850 -0.009780 -0.178320 
-0.008110 15.879910 -0.645150 -3.033312 -37.260888 -0.202559 -15.163393 13.768925 1.526058 16.553767 -1.141036 3.747480 2.332031 9.246446 37.300730 0.461612 7.733981 1.878780 0.220750 0.190310 0.216910 18.487984 -8.497966 5.548380 -20.990027 7.187767 -51.550280 17.930144 -17.482046 49.309923 -1.128189 -8.879596 1.200333 0.160940 -0.004580 0.018220 -4.080184 -4.053255 -8.083054 13.914764 -10.350216 22.424595 -6.088985 -8.100686 -0.686261 0.519152 -10.482367 -9.841250 -23.906491 18.038236 29.592719 -8.531460 15.693880 -11.638560 -29.080091 -8.384227 4.023929 -17.946327 3.617209 -1.777199 -4.281697 -12.907168 0.082438 -3.615839 2.989964 0.325080 0.015820 0.096940 0.046180 28.469935 12.313251 5.191977 39.572923 1.305875 -8.285265 13.854278 26.605356 1.366649 2.332381 -1.253453 -0.160170 0.179410 -0.026590 -0.179320 
-0.117700 15.822870 -0.628200 -3.272031 -37.911226 -0.510808 -15.178504 13.751810 1.487852 17.402344 -1.025665 4.689768 2.653229 9.506672 38.068982 0.547512 7.910965 1.815581 0.190740 0.153640 0.202650 18.487647 -8.336494 5.734440 -20.883309 8.463244 -52.639514 18.191371 -18.644608 52.606787 -1.296589 -9.493049 1.030688 0.115770 -0.021090 0.015150 -4.087573 -4.125064 -8.215042 13.691811 -10.553256 23.093079 -6.390148 -8.205832 -1.152750 0.811323 -10.307305 -10.716665 -24.503147 18.973916 31.989135 -8.395120 16.483110 -10.360000 -30.038475 -9.666433 4.937103 -17.891535 4.664865 -1.269844 -2.370404 -8.896777 -0.162072 -3.612716 2.949637 0.337280 -0.003170 0.109410 0.031500 28.935566 13.582272 5.503617 41.480840 1.946106 -8.400746 13.372700 26.389651 1.277499 2.363189 -1.221452 -0.147280 0.159810 -0.014170 -0.178490 
-0.245250 15.793230 -0.590170 -3.310075 -37.510267 -1.110610 -15.164140 13.761176 1.475599 18.571631 -0.966338 5.932027 2.838290 9.590915 37.646525 0.590946 7.937933 1.803744 0.184930 0.146910 0.207230 18.494318 -8.309837 5.757920 -20.803358 9.045350 -52.203943 18.642078 -19.747048 54.773855 -1.443019 -9.962132 0.901294 0.091430 -0.051020 0.010740 -4.129271 -4.122220 -8.266552 13.689611 -10.918304 23.260198 -7.143228 -8.568946 -1.377580 1.048330 -10.123017 -11.320102 -25.256893 19.905667 34.493739 -8.679440 17.230400 -9.632250 -30.858031 -10.444665 5.505306 -17.484668 5.294824 -0.905538 -1.040092 -5.906775 -0.264666 -3.593287 2.912735 0.359170 -0.029770 0.138200 0.027890 29.286883 14.099475 5.694920 43.821804 2.026613 -8.981494 13.509592 27.669959 1.360452 2.378898 -1.208981 -0.135080 0.147460 -0.020910 -0.179230 
-0.371720 15.786500 -0.560480 -3.416648 -36.627840 -1.123260 -15.152585 13.741039 1.460889 20.012941 -0.989298 6.589555 2.604699 9.661994 36.228311 0.589803 7.853317 1.833074 0.183960 0.147390 0.213150 18.506853 -8.285081 5.739319 -20.355653 9.555949 -51.883398 18.616313 -20.391855 56.318394 -1.540305 -10.254446 0.826062 0.079140 -0.061070 0.010160 -4.172803 -4.111927 -8.270315 13.860747 -11.243962 22.708144 -7.637233 -8.932435 -1.207759 1.106089 -10.128128 -11.591097 -26.087922 20.602214 35.635129 -9.034690 17.696990 -9.290530 -31.055457 -10.709158 5.801881 -18.193515 5.095989 -0.631202 0.376482 -3.441633 -0.313592 -3.610050 2.871218 0.365570 -0.040650 0.155800 0.030300 29.359883 14.169704 5.680937 46.082340 2.305242 -9.440060 13.751508 28.849264 1.426877 2.389095 -1.200370 -0.125960 0.149120 -0.026460 -0.174910 
-0.506090 15.802990 -0.516140 -2.966096 -35.273921 -1.432932 -15.137680 13.759835 1.455282 20.822457 -0.954040 7.333200 2.872469 9.379560 34.595937 0.549004 7.695337 1.889259 0.172260 0.122320 0.217210 18.512187 -8.314037 5.682275 -20.455517 9.462768 -50.958623 19.141784 -21.089178 56.888585 -1.597003 -10.463806 0.767799 0.066040 -0.069220 0.001770 -4.177819 -4.118934 -8.268644 13.359467 -11.195230 21.819806 -8.080451 -9.078594 -0.897505 1.163020 -9.962065 -11.803197 -26.400568 20.834651 36.890556 -9.230950 17.871580 -8.656230 -30.896406 -10.812831 5.916765 -18.561437 4.779388 -0.469144 0.969803 -1.966409 -0.334837 -3.624810 2.832678 0.383670 -0.047630 0.155450 0.020270 29.087491 14.026770 5.823539 48.273600 1.953741 -10.119600 14.730431 30.611578 1.669224 2.383410 -1.200773 -0.138140 0.148740 -0.019870 -0.187760 
-0.646960 15.836870 -0.459390 -2.402266 -34.119403 -1.477906 -15.123507 13.768444 1.458725 21.275849 -0.805230 8.142115 3.082406 9.002322 32.350792 0.508234 7.473847 1.976792 0.151470 0.097410 0.195170 18.519829 -8.382807 5.581188 -20.323397 9.343794 -49.909974 19.000564 -21.231719 57.178094 -1.594947 -10.539305 0.745232 0.056270 -0.047230 0.005500 -4.192018 -4.080065 -8.212755 12.845630 -10.954269 20.256870 -8.402452 -9.114609 -0.475347 0.981673 -10.120901 -11.581037 -26.909350 20.583497 36.691650 -9.257530 17.416950 -7.670070 -30.644448 -10.157280 5.743539 -19.238641 4.765260 -0.542506 2.017144 -2.126223 -0.320017 -3.659897 2.839928 0.361890 -0.028290 0.130440 0.013920 29.146895 13.416953 5.749972 49.548190 1.701642 -10.280274 16.702456 31.559147 2.096875 2.382124 -1.222661 -0.139160 0.145110 -0.000500 -0.181940 
-0.775560 15.911480 -0.419100 -1.842688 -33.879287 -1.788547 -15.085716 13.836309 1.512809 21.117093 -0.448954 8.678222 3.393923 8.638544 30.741125 0.465689 7.274948 2.056218 0.160690 0.105260 0.197400 18.514326 -8.627493 5.365825 -19.233850 9.532469 -47.379494 18.684742 -20.169128 55.583784 -1.499499 -10.130251 0.861786 0.069440 -0.039880 0.000280 -4.200828 -3.893545 -8.107618 12.292814 -9.820183 19.123035 -8.594653 -8.165988 0.006505 0.712256 -10.133733 -11.337423 -27.537555 20.314927 37.632287 -8.835820 16.580380 -7.118400 -30.251054 -9.490085 5.196847 -19.374916 3.448602 -0.575672 2.495740 -2.416275 -0.337561 -3.677981 2.819851 0.361790 -0.026840 0.126490 0.020750 29.184054 12.899134 5.859476 50.064577 1.279822 -10.493845 19.073386 33.077756 2.724412 2.370658 -1.251292 -0.145530 0.159470 -0.003230 -0.179480 
-0.923660 15.991250 -0.375930 -0.893786 -32.408943 -2.070619 -15.101281 13.851439 1.591949 21.667156 -0.228614 8.568167 2.416770 8.686088 28.204390 0.413161 7.089719 2.137575 0.151300 0.102030 0.173420 18.482249 -8.764627 5.130413 -18.655358 9.339342 -45.127241 17.885900 -19.764074 55.654775 -1.460291 -10.063789 0.886870 0.084820 0.001590 -0.011560 -4.074191 -3.871875 -8.052767 10.375250 -8.742320 17.488295 -8.169947 -7.456763 0.877836 0.228945 -10.045024 -10.949374 -27.344906 19.789954 37.778455 -7.578670 15.568330 -6.100480 -28.977463 -8.630123 4.675087 -19.818731 2.108227 -0.622461 2.354220 -3.554214 -0.354609 -3.714273 2.809323 0.337920 -0.002710 0.095090 0.030160 28.880346 12.186313 5.800031 50.623433 1.252089 -10.311871 21.599143 34.325980 3.438370 2.359988 -1.281721 -0.163010 0.184250 0.005560 -0.167790 
